<svg width="28" height="21" viewBox="0 0 28 21" fill="none" xmlns="http://www.w3.org/2000/svg">
<g clip-path="url(#clip0_811_822)">
<path d="M20.3894 10.7301C20.5279 10.6059 20.6947 10.5379 20.8898 10.5261C21.0912 10.5084 21.258 10.5704 21.3902 10.7123C21.5349 10.8365 21.6073 10.9961 21.6073 11.1912C21.6073 11.3863 21.5381 11.5489 21.3996 11.6789L14.4134 18.2411C13.828 18.785 13.1955 19.187 12.5158 19.4471C11.836 19.7072 11.1437 19.8314 10.4388 19.8195C9.74014 19.8136 9.06354 19.6777 8.40897 19.4116C7.75441 19.1515 7.16593 18.7761 6.64353 18.2854C6.11484 17.7947 5.71203 17.242 5.4351 16.6271C5.15817 16.0123 5.01341 15.3768 5.00082 14.7206C4.98823 14.0584 5.12041 13.4081 5.39734 12.7697C5.67427 12.1312 6.1054 11.537 6.69074 10.9872L16.2071 2.03963C16.7988 1.48392 17.4344 1.12034 18.1142 0.948895C18.7939 0.777452 19.4579 0.777452 20.1062 0.948895C20.7608 1.11443 21.3367 1.43071 21.8339 1.89775C22.35 2.38252 22.6962 2.92937 22.8724 3.53829C23.0486 4.14721 23.0423 4.76795 22.8535 5.40052C22.6647 6.03309 22.2745 6.62723 21.6828 7.18295L12.393 15.9088C12.072 16.2104 11.7133 16.4143 11.3168 16.5207C10.9265 16.6271 10.5363 16.636 10.1461 16.5473C9.75587 16.4527 9.40656 16.2606 9.09816 15.9709C8.81493 15.7049 8.62297 15.3886 8.52226 15.0221C8.42786 14.6555 8.431 14.2831 8.53171 13.9047C8.6387 13.5264 8.8527 13.1864 9.17368 12.8849L15.6596 6.79277C15.798 6.65679 15.9585 6.58585 16.141 6.57994C16.3299 6.57403 16.4935 6.63315 16.632 6.75729C16.7704 6.88735 16.8334 7.04106 16.8208 7.21842C16.8145 7.38986 16.7421 7.54357 16.6036 7.67954L10.1367 13.7362C9.90378 13.9609 9.80308 14.1915 9.83455 14.4279C9.86602 14.6644 9.96357 14.8595 10.1272 15.0132C10.2909 15.161 10.4986 15.2526 10.7503 15.2881C11.0021 15.3177 11.2444 15.2201 11.4773 14.9955L20.7293 6.30504C21.0881 5.96806 21.3398 5.5897 21.4846 5.16996C21.6356 4.75022 21.6671 4.33639 21.579 3.92847C21.4909 3.51464 21.2737 3.14219 20.9276 2.81113C20.5814 2.49189 20.188 2.29089 19.7475 2.20812C19.3069 2.12535 18.8632 2.15196 18.4163 2.28793C17.9694 2.4239 17.5666 2.66333 17.2079 3.00622L7.73867 11.8917C7.14075 12.4593 6.75053 13.0712 6.56801 13.7274C6.39178 14.3777 6.40122 15.0162 6.59633 15.6428C6.79773 16.2695 7.15649 16.8252 7.67259 17.31C8.18869 17.8006 8.78032 18.1376 9.44747 18.3209C10.1209 18.5101 10.8038 18.5189 11.4961 18.3475C12.1948 18.182 12.8462 17.8154 13.4504 17.2479L20.3894 10.7301Z" fill="#0F0000"/>
</g>
<defs>
<clipPath id="clip0_811_822">
<rect width="28" height="20" fill="white" transform="translate(0 0.320312)"/>
</clipPath>
</defs>
</svg>
