<svg width="122" height="29" viewBox="0 0 122 29" fill="none" xmlns="http://www.w3.org/2000/svg">
<g clip-path="url(#clip0_696_326)">
<mask id="mask0_696_326" style="mask-type:luminance" maskUnits="userSpaceOnUse" x="0" y="0" width="122" height="29">
<path d="M122 0H0V29H122V0Z" fill="white"/>
</mask>
<g mask="url(#mask0_696_326)">
<path d="M69.3304 17.0797C66.2274 16.3998 66.5025 10.7472 71.5625 10.5781C70.1713 10.6706 67.4907 12.3881 68.3299 13.5699C68.852 14.3032 69.8139 13.6056 70.5025 13.7568C71.1928 13.9081 71.6203 14.6912 71.4013 15.7217C71.1998 16.6703 70.2624 17.2843 69.3304 17.0797Z" fill="#020203"/>
<path d="M105.092 10.9778H108.176V5.40346H111.62V10.9778V11.5473V24.8513C111.62 25.6095 111.694 26.2271 111.841 26.7023C111.988 27.1775 112.181 27.5441 112.423 27.8004C112.663 28.0585 112.924 28.2276 113.204 28.3094C113.485 28.3913 113.758 28.4322 114.025 28.4322C114.958 28.4322 115.713 28.087 116.286 27.3947C116.861 26.7023 117.227 25.9102 117.388 25.015L117.949 25.2179C117.868 25.5703 117.747 25.9654 117.588 26.3979C117.429 26.8304 117.18 27.2451 116.847 27.6385C116.512 28.0318 116.08 28.3575 115.545 28.6156C115.011 28.8737 114.343 29.0018 113.543 29.0018C111.54 29.0018 110.143 28.6084 109.356 27.8217C108.57 27.0369 108.176 25.9227 108.176 24.4846V11.5473H105.092V10.9778ZM102.052 23.956C101.972 24.2551 101.817 24.6822 101.591 25.2375C101.365 25.7928 101.003 26.3499 100.511 26.9052C100.016 27.4605 99.3485 27.9499 98.5078 28.3699C97.6671 28.7899 96.5785 29 95.2436 29C94.2292 29 93.1742 28.8363 92.0794 28.5123C90.9861 28.1866 89.9843 27.6651 89.0763 26.9461C88.1691 26.2271 87.4277 25.2838 86.8529 24.118C86.2805 22.9522 85.9927 21.5142 85.9927 19.8056C85.9927 18.4761 86.2398 17.2427 86.734 16.1036C87.2283 14.9645 87.8954 13.9731 88.7369 13.1331C89.5776 12.293 90.5661 11.6346 91.7009 11.1594C92.8364 10.6841 94.0439 10.4474 95.3264 10.4474C96.0483 10.4474 96.7873 10.5364 97.5498 10.7126C98.31 10.8888 99.0037 11.1594 99.6324 11.5259C100.26 11.8926 100.78 12.366 101.196 12.9498C101.609 13.5336 101.816 14.2455 101.816 15.0856C101.816 15.6551 101.635 16.1231 101.275 16.4898C100.913 16.8564 100.4 17.0398 99.7325 17.0398C99.2789 17.0398 98.8441 16.9384 98.4312 16.7354C98.0175 16.5325 97.8102 16.1854 97.8102 15.6978C97.8102 15.3187 97.9033 14.8577 98.091 14.3149C98.2787 13.7721 98.371 13.3253 98.371 12.9712C98.371 12.3482 98.0644 11.8659 97.4497 11.5277C96.8366 11.1896 96.1288 11.0187 95.328 11.0187C94.7407 11.0187 94.133 11.0934 93.5058 11.243C92.8786 11.3925 92.3038 11.7644 91.7838 12.3625C91.2629 12.9587 90.8359 13.8539 90.5028 15.0482C90.1696 16.2406 90.0015 17.8692 90.0015 19.9301C90.0015 21.0959 90.075 22.1958 90.222 23.2245C90.3698 24.2551 90.6357 25.1574 91.0228 25.9298C91.4099 26.7023 91.9449 27.3146 92.6245 27.7612C93.3041 28.208 94.1925 28.4322 95.2874 28.4322C96.4636 28.4322 97.4302 28.256 98.1911 27.9036C98.9513 27.5513 99.5519 27.1241 99.9937 26.6222C100.433 26.1203 100.761 25.6112 100.975 25.0969C101.189 24.5825 101.348 24.1608 101.455 23.835L102.052 23.956ZM83.3509 27.9837C83.0037 28.2542 82.5884 28.4927 82.1082 28.6957C81.6288 28.8986 81.0399 29 80.3463 29C79.0637 29 78.1366 28.7224 77.5619 28.1653C76.9873 27.61 76.5948 26.8287 76.3793 25.8266H76.2987C76.1918 26.0704 76.0447 26.3766 75.8589 26.7414C75.6715 27.1081 75.3859 27.4605 74.9969 27.7986C74.6097 28.1368 74.0963 28.4216 73.4551 28.6529C72.8139 28.8825 71.9991 28.9982 71.0127 28.9982C69.8914 28.9982 68.9961 28.8701 68.3286 28.612C67.661 28.3539 67.1406 28.0353 66.7657 27.6563C66.3925 27.2772 66.1455 26.85 66.0245 26.3748C65.9036 25.8996 65.8441 25.46 65.8441 25.0524C65.8441 24.1038 66.0316 23.3438 66.4048 22.7743C66.778 22.2048 67.2668 21.7509 67.866 21.4109C68.467 21.0728 69.1345 20.7934 69.8686 20.578C70.6028 20.3609 71.3438 20.1295 72.092 19.8857C72.9733 19.5867 73.7004 19.3304 74.275 19.1132C74.8498 18.8961 75.2966 18.6327 75.6171 18.3195C75.9378 18.008 76.1585 17.6147 76.2777 17.1395C76.3985 16.6643 76.4581 16.0199 76.4581 15.2066C76.4581 12.5725 76.1936 11.0187 73.2939 10.4474C74.5221 10.4474 75.5506 10.604 76.3776 10.9155C77.2045 11.2269 77.8738 11.6469 78.3802 12.1773C78.8885 12.706 79.2475 13.3022 79.461 13.9678C79.6752 14.6317 79.7816 15.3311 79.7816 16.0626V26.1933C79.7816 26.98 79.9028 27.5085 80.1429 27.779C80.383 28.0496 80.7295 28.1866 81.1838 28.1866C81.4779 28.1866 81.786 28.1315 82.1051 28.0247C82.4242 27.9179 82.7323 27.7542 83.0263 27.537L83.3509 27.9837ZM76.3425 18.4636H76.2619C76.2094 18.816 75.7678 19.1684 74.9409 19.5208L71.9361 20.7417C71.0811 21.0941 70.4275 21.5889 69.9738 22.2261C69.5199 22.8633 69.2922 23.657 69.2922 24.6057C69.2922 25.0115 69.3325 25.4333 69.4113 25.8675C69.4919 26.3018 69.6391 26.6881 69.8528 27.0262C70.0666 27.3644 70.3662 27.6438 70.7534 27.8609C71.1407 28.078 71.6417 28.1866 72.2549 28.1866C73.1362 28.1866 73.8493 27.9962 74.3977 27.6171C74.9443 27.238 75.3596 26.7628 75.6399 26.1933C75.9202 25.6237 76.1077 25.0062 76.2006 24.3423C76.2934 23.6784 76.3407 23.0751 76.3407 22.5322V18.4636H76.3425ZM15.1445 28.3966H18.2282V0.569535H15.1445V0H21.6727V15.6231H21.7533C21.8864 15.2706 22.1143 14.8293 22.4349 14.3007C22.7555 13.7721 23.1882 13.2702 23.7367 12.795C24.2851 12.3197 24.9508 11.914 25.7393 11.574C26.526 11.2359 27.4686 11.065 28.5636 11.065C30.3262 11.065 31.7612 11.4993 32.8685 12.366C33.9758 13.2346 34.5311 14.6175 34.5311 16.5165V28.3966H37.6148V28.9662H28.0029V28.3966H31.0866V15.2564C31.0866 14.1992 30.8395 13.3307 30.3455 12.6525C29.8514 11.9745 29.084 11.6346 28.0415 11.6346C27.1865 11.6346 26.3717 11.8249 25.5991 12.2041C24.8247 12.5832 24.1449 13.1136 23.5562 13.7916C22.9693 14.4697 22.5085 15.2689 22.1738 16.1926C21.8392 17.1145 21.6727 18.1183 21.6727 19.204V28.3984H24.7563V28.9679H15.1445V28.3966Z" fill="#020203"/>
<path d="M116.946 15.4533C119.03 14.1825 117.454 10.1584 113.75 11.3046C114.781 11.0234 117.139 11.5947 116.818 12.6608C116.619 13.3229 115.753 13.0595 115.291 13.3407C114.828 13.6237 114.709 14.2982 115.117 14.9906C115.492 15.626 116.321 15.8342 116.946 15.4533Z" fill="#020203"/>
<path d="M121.071 15.4533C123.154 14.1825 121.579 10.1584 117.875 11.3046C118.906 11.0234 121.264 11.5947 120.943 12.6608C120.744 13.3229 119.878 13.0595 119.416 13.3407C118.953 13.6237 118.834 14.2982 119.242 14.9906C119.617 15.626 120.446 15.8342 121.071 15.4533Z" fill="#020203"/>
<path d="M44.4617 18.3405C44.4617 18.6111 44.4548 18.8905 44.4425 19.1753C44.4285 19.46 44.4232 19.8195 44.4232 20.2538C44.4232 21.1491 44.4758 22.0852 44.5826 23.0605C44.6895 24.0377 44.9226 24.9187 45.2835 25.7053C45.6444 26.492 46.1788 27.1434 46.8848 27.6578C47.5927 28.1739 48.5335 28.4302 49.7092 28.4302C50.8849 28.4302 51.8519 28.254 52.6123 27.9016C53.3728 27.5492 53.9737 27.122 54.4153 26.6202C54.855 26.1182 55.1826 25.6093 55.3964 25.0949C55.6102 24.5787 55.7696 24.1587 55.8765 23.833L56.4775 23.954C56.3968 24.253 56.2444 24.6802 56.0166 25.2355C55.7906 25.7908 55.4297 26.3478 54.9357 26.9031C54.4416 27.4584 53.774 27.9478 52.933 28.3679C52.092 28.788 51.004 28.9979 49.6689 28.9979C48.3338 28.9979 47.0986 28.7808 45.9651 28.3465C44.8297 27.9122 43.8485 27.2894 43.0216 26.4742C42.1928 25.6608 41.5533 24.6908 41.0995 23.566C40.6458 22.4394 40.418 21.1864 40.418 19.8017C40.418 18.6075 40.651 17.4488 41.1188 16.324C41.5866 15.1992 42.2261 14.2007 43.0408 13.3339C43.8556 12.4654 44.8104 11.7677 45.9037 11.2391C46.9988 10.7105 48.1726 10.4453 49.4288 10.4453C50.177 10.4453 50.9777 10.5806 51.831 10.8512C52.6859 11.1216 53.4796 11.5631 54.2137 12.1736C54.9479 12.784 55.5629 13.5902 56.057 14.594C56.5511 15.5978 56.798 16.8455 56.798 18.337H44.4617V18.3405ZM52.7123 17.771C52.7666 17.3919 52.7928 17.0377 52.7928 16.7138C52.7928 16.3881 52.7928 16.0499 52.7928 15.6975C52.7928 14.7756 52.7052 14.0156 52.5318 13.4194C52.3583 12.8232 52.1183 12.3479 51.81 11.9956C51.5033 11.6432 51.1284 11.3922 50.6886 11.2427C50.2488 11.0932 49.774 11.0184 49.2677 11.0184C48.3601 11.0184 47.612 11.2017 47.025 11.5684C46.4381 11.9351 45.9703 12.4299 45.6234 13.0527C45.2765 13.6775 45.0154 14.3947 44.842 15.2099C44.6685 16.0233 44.5546 16.8775 44.5021 17.7728H52.7123V17.771Z" fill="#020203"/>
<path d="M0 10.9806H3.08364V5.40625H6.5282V10.9806H9.89397V11.5501H6.5282V24.8541C6.5282 25.6122 6.6018 26.2299 6.74896 26.7051C6.89614 27.1803 7.08886 27.5469 7.3289 27.8032C7.56893 28.0613 7.82998 28.2304 8.11034 28.3122C8.39063 28.3941 8.66395 28.435 8.93032 28.435C9.86417 28.435 10.6193 28.0898 11.194 27.3974C11.7686 26.7051 12.1349 25.9131 12.296 25.0178L12.8567 25.2207C12.7761 25.5731 12.6552 25.9682 12.4958 26.4007C12.3363 26.8332 12.0893 27.2479 11.7546 27.6412C11.4217 28.0346 10.9872 28.3603 10.4528 28.6184C9.91844 28.8764 9.25088 29.0045 8.45022 29.0045C6.44761 29.0045 5.05121 28.6112 4.26453 27.8246C3.47785 27.0397 3.08364 25.9255 3.08364 24.4874V11.5501H0V10.9806Z" fill="#020203"/>
</g>
</g>
<defs>
<clipPath id="clip0_696_326">
<rect width="122" height="29" fill="white"/>
</clipPath>
</defs>
</svg>
